<svg width="200" height="150" viewBox="0 0 200 150" fill="none" xmlns="http://www.w3.org/2000/svg">
<path d="M99.8571 14.2857C90.946 14.2857 82.1221 16.0409 73.8893 19.451C65.6565 22.8612 58.176 27.8595 51.8749 34.1606C45.5738 40.4617 40.5755 47.9422 37.1653 56.1751C33.7552 64.4079 32 73.2317 32 82.1429C32 91.054 33.7552 99.8778 37.1653 108.111C40.5755 116.343 45.5738 123.824 51.8749 130.125C58.176 136.426 65.6565 141.425 73.8893 144.835C82.1221 148.245 90.946 150 99.8571 150C108.768 150 117.592 148.245 125.825 144.835C134.058 141.425 141.538 136.426 147.839 130.125C154.14 123.824 159.139 116.343 162.549 108.111C165.959 99.8778 167.714 91.054 167.714 82.1429C167.714 73.2317 165.959 64.4079 162.549 56.1751C159.139 47.9422 154.14 40.4617 147.839 34.1606C141.538 27.8595 134.058 22.8612 125.825 19.451C117.592 16.0409 108.768 14.2857 99.8571 14.2857V14.2857Z" fill="#DD9F05"/>
<path d="M99.8571 21.4286C83.7547 21.4286 68.3118 27.8252 56.9256 39.2114C45.5395 50.5975 39.1428 66.0404 39.1428 82.1429C39.1428 98.2453 45.5395 113.688 56.9256 125.074C68.3118 136.46 83.7547 142.857 99.8571 142.857C115.96 142.857 131.402 136.46 142.789 125.074C154.175 113.688 160.571 98.2453 160.571 82.1429C160.571 66.0404 154.175 50.5975 142.789 39.2114C131.402 27.8252 115.96 21.4286 99.8571 21.4286Z" fill="#01579B"/>
<path d="M135.571 103.571C138.846 113.989 127.832 121.589 119.204 121.589C114.482 121.589 108.639 119.789 107 114.286C100.911 117.521 95.6999 121.104 92.7142 123.279V128.571H138.839C145.975 122.579 151.746 115.021 155.521 106.357C152.468 105.214 146.243 103.571 135.571 103.571ZM144.725 41.3249C130.589 45.4785 120.543 53.0214 115.968 56.9892C112.818 66.5499 105.275 77.0785 92.7142 85.7142V110.714C92.7142 110.714 102.7 92.4678 126.346 86.9035C141.761 83.2749 155.079 82.2428 160.564 81.9535C160.514 66.2928 154.511 52.0571 144.725 41.3249Z" fill="#0277BD"/>
<path d="M138.854 35.6892C135.464 32.8464 131.779 30.3428 127.821 28.2857C123.846 30.1249 118.871 32.6535 114.143 35.7142C116.389 38.5249 117.561 42.2857 117.661 46.5714C122.839 42.9178 129.993 38.7571 138.854 35.6892Z" fill="#0091EA"/>
<path d="M99.8572 28.5714C85.6492 28.5714 72.0231 34.2155 61.9765 44.2621C51.9299 54.3087 46.2858 67.9348 46.2858 82.1429C46.2858 96.3509 51.9299 109.977 61.9765 120.024C72.0231 130.07 85.6492 135.714 99.8572 135.714C114.065 135.714 127.691 130.07 137.738 120.024C147.785 109.977 153.429 96.3509 153.429 82.1429C153.429 67.9348 147.785 54.3087 137.738 44.2621C127.691 34.2155 114.065 28.5714 99.8572 28.5714Z" fill="#0277BD"/>
<path d="M119.704 32.4142C117.857 33.4357 115.986 34.5214 114.143 35.7142C116.389 38.525 117.561 42.2857 117.661 46.5714C121.25 44.0392 125.85 41.2785 131.246 38.7928C127.696 36.2178 123.836 34.0642 119.704 32.4142Z" fill="#00B0FF"/>
<path d="M153.429 82.1428C153.429 67.1785 147.282 53.6643 137.389 43.9464C127.121 48.1607 119.696 53.7535 115.964 56.9893C112.818 66.55 105.275 77.0785 92.7142 85.7143V110.714C92.7142 110.714 102.7 92.4678 126.346 86.9035C137.039 84.3893 146.65 83.1357 153.411 82.4964C153.411 82.3785 153.429 82.2643 153.429 82.1428Z" fill="#0091EA"/>
<path d="M155.118 121.429H132V128.571H149.25C151.364 126.325 153.325 123.946 155.118 121.429ZM92.7143 14.6679V149.618C95.0643 149.864 97.4429 150 99.8572 150V14.2857C97.4429 14.2857 95.0643 14.4214 92.7143 14.6679ZM53.4286 131.536C55.675 133.646 58.0536 135.611 60.5714 137.404V26.8821C58.0536 28.675 55.675 30.6393 53.4286 32.75V131.536Z" fill="#B3831D"/>
<path d="M53.4286 121.225C55.6036 123.807 58 126.197 60.5714 128.386V35.8965C58 38.0858 55.6036 40.4751 53.4286 43.0572V121.225Z" fill="#01579B"/>
<path d="M49.8572 0H92.7143V128.571H164.143L146.286 150H49.8572L60.5715 135.714V14.2857L49.8572 0Z" fill="#FFC107"/>
<path d="M99.8571 121.429V21.4286C97.4357 21.4286 95.0607 21.6107 92.7142 21.8857V128.571H138.939C141.521 126.396 143.911 124 146.1 121.429H99.8571Z" fill="#01579B"/>
<path d="M99.8571 79.9822C97.7785 81.9251 95.4357 83.8429 92.7142 85.7144V110.714C92.7142 110.714 94.9857 106.611 99.8571 101.711V79.9822Z" fill="#0277BD"/>
<path d="M92.7143 128.571V0H85.5714V135.714H158.189L164.143 128.571H92.7143Z" fill="#E8A30A"/>
<path d="M135.571 103.571C138.846 113.989 127.832 121.589 119.204 121.589C114.482 121.589 108.639 119.789 107 114.286C100.911 117.521 95.6999 121.104 92.7142 123.279V128.571H126.507C136.104 123.05 143.804 114.657 148.471 104.546C145.189 103.989 140.946 103.571 135.571 103.571Z" fill="#0091EA"/>
<path d="M143.961 123.75C144.661 123.014 145.268 122.196 145.929 121.429H121.321C120.607 121.525 119.896 121.589 119.204 121.589C118.457 121.589 117.682 121.525 116.904 121.429H99.8571V118.443C96.9142 120.296 94.4357 122.025 92.7142 123.279V128.571H138.839C140.614 127.079 142.307 125.489 143.904 123.811C143.921 123.793 143.939 123.771 143.961 123.75Z" fill="#0277BD"/>
</svg>
